0
SECTION
2
HEADER
9
$ACADVER
1
AC1009
0
ENDSEC
0
SECTION
2
TABLES
0
TABLE
2
LAYER
70
5
0
LAYER
2
WALL
70
0
62
8
6
CONTINUOUS
0
LAYER
2
OUT
70
0
62
150
6
CONTINUOUS
0
LAYER
2
text
70
0
62
7
6
CONTINUOUS
0
LAYER
2
INSIDE
70
0
62
5
6
CONTINUOUS
0
LAYER
2
OFFSET_A
70
0
62
30
6
CONTINUOUS
0
ENDTAB
0
ENDSEC
0
SECTION
2
ENTITIES
0
TEXT
8
text
10
0
20
3234
40
60
1
Wall 1  wall 2600 x 3200
0
POLYLINE
8
WALL
66
1
70
1
0
VERTEX
8
WALL
10
0
20
0
30
0
0
VERTEX
8
WALL
10
2600
20
0
30
0
0
VERTEX
8
WALL
10
2600
20
3200
30
0
0
VERTEX
8
WALL
10
0
20
3200
30
0
0
SEQEND
8
WALL
0
POLYLINE
8
OUT
66
1
70
1
0
VERTEX
8
OUT
10
0
20
0
30
0
0
VERTEX
8
OUT
10
800
20
0
30
0
0
VERTEX
8
OUT
10
800
20
1030
30
0
0
VERTEX
8
OUT
10
0
20
1030
30
0
0
SEQEND
8
OUT
0
POLYLINE
8
OFFSET_A
66
1
70
1
0
VERTEX
8
OFFSET_A
10
80
20
305
30
0
0
VERTEX
8
OFFSET_A
10
312.5
20
305
30
0
0
VERTEX
8
OFFSET_A
10
312.5
20
950
30
0
0
VERTEX
8
OFFSET_A
10
80
20
950
30
0
0
SEQEND
8
OFFSET_A
0
POLYLINE
8
OFFSET_A
66
1
70
1
0
VERTEX
8
OFFSET_A
10
392.5
20
305
30
0
0
VERTEX
8
OFFSET_A
10
625
20
305
30
0
0
VERTEX
8
OFFSET_A
10
625
20
950
30
0
0
VERTEX
8
OFFSET_A
10
392.5
20
950
30
0
0
SEQEND
8
OFFSET_A
0
TEXT
8
text
10
18
20
944
40
70
1
Wall 1A
0
TEXT
8
text
10
18
20
16
40
49
1
panel 800 x 1030
0
POLYLINE
8
OUT
66
1
70
1
0
VERTEX
8
OUT
10
1700
20
0
30
0
0
VERTEX
8
OUT
10
2600
20
0
30
0
0
VERTEX
8
OUT
10
2600
20
1030
30
0
0
VERTEX
8
OUT
10
1700
20
1030
30
0
0
SEQEND
8
OUT
0
POLYLINE
8
OFFSET_A
66
1
70
1
0
VERTEX
8
OFFSET_A
10
1875
20
305
30
0
0
VERTEX
8
OFFSET_A
10
2095
20
305
30
0
0
VERTEX
8
OFFSET_A
10
2095
20
950
30
0
0
VERTEX
8
OFFSET_A
10
1875
20
950
30
0
0
SEQEND
8
OFFSET_A
0
POLYLINE
8
OFFSET_A
66
1
70
1
0
VERTEX
8
OFFSET_A
10
2175
20
305
30
0
0
VERTEX
8
OFFSET_A
10
2560
20
305
30
0
0
VERTEX
8
OFFSET_A
10
2560
20
950
30
0
0
VERTEX
8
OFFSET_A
10
2175
20
950
30
0
0
SEQEND
8
OFFSET_A
0
TEXT
8
text
10
1718
20
944
40
70
1
Wall 1B
0
TEXT
8
text
10
1718
20
16
40
49
1
panel 900 x 1030
0
POLYLINE
8
INSIDE
66
1
70
1
0
VERTEX
8
INSIDE
10
800
20
0
30
0
0
VERTEX
8
INSIDE
10
1700
20
0
30
0
0
VERTEX
8
INSIDE
10
1700
20
2100
30
0
0
VERTEX
8
INSIDE
10
800
20
2100
30
0
0
SEQEND
8
INSIDE
0
TEXT
8
text
10
818
20
2050
40
40
1
Door
0
TEXT
8
text
10
2850
20
3234
40
60
1
Wall 2  wall 1600 x 3200
0
POLYLINE
8
WALL
66
1
70
1
0
VERTEX
8
WALL
10
2850
20
0
30
0
0
VERTEX
8
WALL
10
4450
20
0
30
0
0
VERTEX
8
WALL
10
4450
20
3200
30
0
0
VERTEX
8
WALL
10
2850
20
3200
30
0
0
SEQEND
8
WALL
0
POLYLINE
8
OUT
66
1
70
1
0
VERTEX
8
OUT
10
2850
20
0
30
0
0
VERTEX
8
OUT
10
4450
20
0
30
0
0
VERTEX
8
OUT
10
4450
20
1030
30
0
0
VERTEX
8
OUT
10
2850
20
1030
30
0
0
SEQEND
8
OUT
0
POLYLINE
8
OFFSET_A
66
1
70
1
0
VERTEX
8
OFFSET_A
10
2890
20
305
30
0
0
VERTEX
8
OFFSET_A
10
3275
20
305
30
0
0
VERTEX
8
OFFSET_A
10
3275
20
950
30
0
0
VERTEX
8
OFFSET_A
10
2890
20
950
30
0
0
SEQEND
8
OFFSET_A
0
POLYLINE
8
OFFSET_A
66
1
70
1
0
VERTEX
8
OFFSET_A
10
3355
20
305
30
0
0
VERTEX
8
OFFSET_A
10
3822.5
20
305
30
0
0
VERTEX
8
OFFSET_A
10
3822.5
20
950
30
0
0
VERTEX
8
OFFSET_A
10
3355
20
950
30
0
0
SEQEND
8
OFFSET_A
0
POLYLINE
8
OFFSET_A
66
1
70
1
0
VERTEX
8
OFFSET_A
10
3902.5
20
305
30
0
0
VERTEX
8
OFFSET_A
10
4370
20
305
30
0
0
VERTEX
8
OFFSET_A
10
4370
20
950
30
0
0
VERTEX
8
OFFSET_A
10
3902.5
20
950
30
0
0
SEQEND
8
OFFSET_A
0
TEXT
8
text
10
2868
20
944
40
70
1
Wall 2A
0
TEXT
8
text
10
2868
20
16
40
49
1
panel 1600 x 1030
0
TEXT
8
text
10
0
20
3350
40
80
1
ROOM: Room 1
0
ENDSEC
0
EOF
