0
SECTION
2
HEADER
9
$ACADVER
1
AC1009
0
ENDSEC
0
SECTION
2
TABLES
0
TABLE
2
LAYER
70
19
0
LAYER
2
0
70
0
62
7
6
CONTINUOUS
0
LAYER
2
text
70
0
62
7
6
CONTINUOUS
0
LAYER
2
SHEET
70
0
62
7
6
CONTINUOUS
0
LAYER
2
OUT
70
0
62
150
6
CONTINUOUS
0
LAYER
2
OFFSET_A
70
0
62
30
6
CONTINUOUS
0
LAYER
2
GROOVE
70
0
62
211
6
CONTINUOUS
0
LAYER
2
LED_CHANNEL
70
0
62
30
6
CONTINUOUS
0
LAYER
2
PART_NUMBER
70
0
62
7
6
CONTINUOUS
0
LAYER
2
OFFSET_B
70
0
62
1
6
CONTINUOUS
0
LAYER
2
SCRIBE
70
0
62
230
6
CONTINUOUS
0
LAYER
2
OUT_10MM
70
0
62
105
6
CONTINUOUS
0
LAYER
2
IN_22MM
70
0
62
5
6
CONTINUOUS
0
LAYER
2
POKET_INSERT
70
0
62
30
6
CONTINUOUS
0
LAYER
2
SHADOW
70
0
62
105
6
CONTINUOUS
0
LAYER
2
hinges
70
0
62
7
6
CONTINUOUS
0
LAYER
2
INSIDE
70
0
62
5
6
CONTINUOUS
0
LAYER
2
BEADING
70
0
62
34
6
CONTINUOUS
0
LAYER
2
OFFCUT
70
0
62
6
6
CONTINUOUS
0
LAYER
2
OFFCUT_TEXT
70
0
62
4
6
CONTINUOUS
0
ENDTAB
0
ENDSEC
0
SECTION
2
ENTITIES
0
POLYLINE
8
SHEET
66
1
70
1
0
VERTEX
8
SHEET
10
0
20
0
30
0
0
VERTEX
8
SHEET
10
1220
20
0
30
0
0
VERTEX
8
SHEET
10
1220
20
2440
30
0
0
VERTEX
8
SHEET
10
0
20
2440
30
0
0
SEQEND
8
SHEET
0
TEXT
8
text
10
40
20
2412
40
20
1
SHEET 1 MDF Hidrofugo Plus 18mm
0
POLYLINE
8
OUT
66
1
70
1
0
VERTEX
8
OUT
10
7
20
7
30
0
0
VERTEX
8
OUT
10
1007
20
7
30
0
0
VERTEX
8
OUT
10
1007
20
607
30
0
0
VERTEX
8
OUT
10
7
20
607
30
0
0
SEQEND
8
OUT
0
POLYLINE
8
OFFSET_A
66
1
70
1
0
VERTEX
8
OFFSET_A
10
57
20
57
30
0
0
VERTEX
8
OFFSET_A
10
482
20
57
30
0
0
VERTEX
8
OFFSET_A
10
482
20
557
30
0
0
VERTEX
8
OFFSET_A
10
57
20
557
30
0
0
SEQEND
8
OFFSET_A
0
POLYLINE
8
OFFSET_A
66
1
70
1
0
VERTEX
8
OFFSET_A
10
532
20
57
30
0
0
VERTEX
8
OFFSET_A
10
957
20
57
30
0
0
VERTEX
8
OFFSET_A
10
957
20
557
30
0
0
VERTEX
8
OFFSET_A
10
532
20
557
30
0
0
SEQEND
8
OFFSET_A
0
LINE
8
GROOVE
10
1007
20
7
11
7
21
7
0
LINE
8
GROOVE
10
1007
20
107
11
7
21
107
0
LINE
8
GROOVE
10
1007
20
207
11
7
21
207
0
LINE
8
GROOVE
10
1007
20
307
11
7
21
307
0
LINE
8
GROOVE
10
1007
20
407
11
7
21
407
0
LINE
8
GROOVE
10
1007
20
507
11
7
21
507
0
LINE
8
GROOVE
10
1007
20
607
11
7
21
607
0
POLYLINE
8
LED_CHANNEL
66
1
70
1
0
VERTEX
8
LED_CHANNEL
10
7
20
107
30
0
0
VERTEX
8
LED_CHANNEL
10
1007
20
107
30
0
0
VERTEX
8
LED_CHANNEL
10
1007
20
111
30
0
0
VERTEX
8
LED_CHANNEL
10
7
20
111
30
0
0
SEQEND
8
LED_CHANNEL
0
TEXT
8
PART_NUMBER
10
37
20
563
40
14
1
1
0
TEXT
8
text
10
29
20
43
40
14
1
600 x 1000
0
POLYLINE
8
OUT
66
1
70
1
0
VERTEX
8
OUT
10
7
20
614
30
0
0
VERTEX
8
OUT
10
707
20
614
30
0
0
VERTEX
8
OUT
10
707
20
1114
30
0
0
VERTEX
8
OUT
10
7
20
1114
30
0
0
SEQEND
8
OUT
0
POLYLINE
8
OFFSET_A
66
1
70
1
0
VERTEX
8
OFFSET_A
10
57
20
664
30
0
0
VERTEX
8
OFFSET_A
10
657
20
664
30
0
0
VERTEX
8
OFFSET_A
10
657
20
1064
30
0
0
VERTEX
8
OFFSET_A
10
57
20
1064
30
0
0
SEQEND
8
OFFSET_A
0
TEXT
8
PART_NUMBER
10
37
20
1070
40
14
1
3
0
TEXT
8
text
10
29
20
650
40
14
1
500 x 700
0
POLYLINE
8
OUT
66
1
70
1
0
VERTEX
8
OUT
10
64
20
64
30
0
0
VERTEX
8
OUT
10
664
20
64
30
0
0
VERTEX
8
OUT
10
664
20
464
30
0
0
VERTEX
8
OUT
10
64
20
464
30
0
0
SEQEND
8
OUT
0
POLYLINE
8
OFFSET_A
66
1
70
1
0
VERTEX
8
OFFSET_A
10
64
20
64
30
0
0
VERTEX
8
OFFSET_A
10
664
20
64
30
0
0
VERTEX
8
OFFSET_A
10
664
20
464
30
0
0
VERTEX
8
OFFSET_A
10
64
20
464
30
0
0
SEQEND
8
OFFSET_A
0
POLYLINE
8
OFFSET_B
66
1
70
1
0
VERTEX
8
OFFSET_B
10
64
20
64
30
0
0
VERTEX
8
OFFSET_B
10
664
20
64
30
0
0
VERTEX
8
OFFSET_B
10
664
20
464
30
0
0
VERTEX
8
OFFSET_B
10
64
20
464
30
0
0
SEQEND
8
OFFSET_B
0
LINE
8
SCRIBE
10
664
20
264
11
64
21
264
0
TEXT
8
PART_NUMBER
10
94
20
420
40
14
1
2
0
TEXT
8
text
10
86
20
100
40
14
1
400 x 600
0
POLYLINE
8
OUT
66
1
70
1
0
VERTEX
8
OUT
10
714
20
614
30
0
0
VERTEX
8
OUT
10
1114
20
614
30
0
0
VERTEX
8
OUT
10
1114
20
1214
30
0
0
VERTEX
8
OUT
10
714
20
1214
30
0
0
SEQEND
8
OUT
0
POLYLINE
8
OFFSET_A
66
1
70
1
0
VERTEX
8
OFFSET_A
10
714
20
614
30
0
0
VERTEX
8
OFFSET_A
10
1114
20
614
30
0
0
VERTEX
8
OFFSET_A
10
1114
20
1214
30
0
0
VERTEX
8
OFFSET_A
10
714
20
1214
30
0
0
SEQEND
8
OFFSET_A
0
POLYLINE
8
OFFSET_B
66
1
70
1
0
VERTEX
8
OFFSET_B
10
714
20
614
30
0
0
VERTEX
8
OFFSET_B
10
1114
20
614
30
0
0
VERTEX
8
OFFSET_B
10
1114
20
1214
30
0
0
VERTEX
8
OFFSET_B
10
714
20
1214
30
0
0
SEQEND
8
OFFSET_B
0
LINE
8
SCRIBE
10
914
20
614
11
914
21
1214
0
TEXT
8
PART_NUMBER
10
758
20
1172.52
40
14
50
90
1
6
0
TEXT
8
text
10
788.1
20
636
40
14
50
90
1
400 x 600
0
POLYLINE
8
OUT
66
1
70
1
0
VERTEX
8
OUT
10
7
20
1121
30
0
0
VERTEX
8
OUT
10
504
20
1121
30
0
0
VERTEX
8
OUT
10
504
20
1601
30
0
0
VERTEX
8
OUT
10
7
20
1601
30
0
0
SEQEND
8
OUT
0
POLYLINE
8
OUT
66
1
70
1
0
VERTEX
8
OUT
10
74.5
20
1186
30
0
0
VERTEX
8
OUT
10
436.5
20
1186
30
0
42
0.41421356
0
VERTEX
8
OUT
10
439
20
1188.5
30
0
0
VERTEX
8
OUT
10
439
20
1533.5
30
0
42
0.41421356
0
VERTEX
8
OUT
10
436.5
20
1536
30
0
0
VERTEX
8
OUT
10
74.5
20
1536
30
0
42
0.41421356
0
VERTEX
8
OUT
10
72
20
1533.5
30
0
0
VERTEX
8
OUT
10
72
20
1188.5
30
0
42
0.41421356
0
SEQEND
8
OUT
0
POLYLINE
8
OFFSET_A
66
1
70
1
0
VERTEX
8
OFFSET_A
10
74.5
20
1186
30
0
0
VERTEX
8
OFFSET_A
10
436.5
20
1186
30
0
42
0.41421356
0
VERTEX
8
OFFSET_A
10
439
20
1188.5
30
0
0
VERTEX
8
OFFSET_A
10
439
20
1533.5
30
0
42
0.41421356
0
VERTEX
8
OFFSET_A
10
436.5
20
1536
30
0
0
VERTEX
8
OFFSET_A
10
74.5
20
1536
30
0
42
0.41421356
0
VERTEX
8
OFFSET_A
10
72
20
1533.5
30
0
0
VERTEX
8
OFFSET_A
10
72
20
1188.5
30
0
42
0.41421356
0
SEQEND
8
OFFSET_A
0
POLYLINE
8
OFFSET_A
66
1
70
1
0
VERTEX
8
OFFSET_A
10
67.5
20
1179
30
0
0
VERTEX
8
OFFSET_A
10
443.5
20
1179
30
0
42
0.41421356
0
VERTEX
8
OFFSET_A
10
446
20
1181.5
30
0
0
VERTEX
8
OFFSET_A
10
446
20
1540.5
30
0
42
0.41421356
0
VERTEX
8
OFFSET_A
10
443.5
20
1543
30
0
0
VERTEX
8
OFFSET_A
10
67.5
20
1543
30
0
42
0.41421356
0
VERTEX
8
OFFSET_A
10
65
20
1540.5
30
0
0
VERTEX
8
OFFSET_A
10
65
20
1181.5
30
0
42
0.41421356
0
SEQEND
8
OFFSET_A
0
POLYLINE
8
OUT_10MM
66
1
70
1
0
VERTEX
8
OUT_10MM
10
74.5
20
1186
30
0
0
VERTEX
8
OUT_10MM
10
436.5
20
1186
30
0
42
0.41421356
0
VERTEX
8
OUT_10MM
10
439
20
1188.5
30
0
0
VERTEX
8
OUT_10MM
10
439
20
1533.5
30
0
42
0.41421356
0
VERTEX
8
OUT_10MM
10
436.5
20
1536
30
0
0
VERTEX
8
OUT_10MM
10
74.5
20
1536
30
0
42
0.41421356
0
VERTEX
8
OUT_10MM
10
72
20
1533.5
30
0
0
VERTEX
8
OUT_10MM
10
72
20
1188.5
30
0
42
0.41421356
0
SEQEND
8
OUT_10MM
0
POLYLINE
8
IN_22MM
66
1
70
1
0
VERTEX
8
IN_22MM
10
74.5
20
1186
30
0
0
VERTEX
8
IN_22MM
10
436.5
20
1186
30
0
42
0.41421356
0
VERTEX
8
IN_22MM
10
439
20
1188.5
30
0
0
VERTEX
8
IN_22MM
10
439
20
1533.5
30
0
42
0.41421356
0
VERTEX
8
IN_22MM
10
436.5
20
1536
30
0
0
VERTEX
8
IN_22MM
10
74.5
20
1536
30
0
42
0.41421356
0
VERTEX
8
IN_22MM
10
72
20
1533.5
30
0
0
VERTEX
8
IN_22MM
10
72
20
1188.5
30
0
42
0.41421356
0
SEQEND
8
IN_22MM
0
POLYLINE
8
POKET_INSERT
66
1
70
1
0
VERTEX
8
POKET_INSERT
10
67.5
20
1179
30
0
0
VERTEX
8
POKET_INSERT
10
443.5
20
1179
30
0
42
0.41421356
0
VERTEX
8
POKET_INSERT
10
446
20
1181.5
30
0
0
VERTEX
8
POKET_INSERT
10
446
20
1540.5
30
0
42
0.41421356
0
VERTEX
8
POKET_INSERT
10
443.5
20
1543
30
0
0
VERTEX
8
POKET_INSERT
10
67.5
20
1543
30
0
42
0.41421356
0
VERTEX
8
POKET_INSERT
10
65
20
1540.5
30
0
0
VERTEX
8
POKET_INSERT
10
65
20
1181.5
30
0
42
0.41421356
0
SEQEND
8
POKET_INSERT
0
POLYLINE
8
POKET_INSERT
66
1
70
1
0
VERTEX
8
POKET_INSERT
10
60.5
20
1172
30
0
0
VERTEX
8
POKET_INSERT
10
450.5
20
1172
30
0
42
0.41421356
0
VERTEX
8
POKET_INSERT
10
453
20
1174.5
30
0
0
VERTEX
8
POKET_INSERT
10
453
20
1547.5
30
0
42
0.41421356
0
VERTEX
8
POKET_INSERT
10
450.5
20
1550
30
0
0
VERTEX
8
POKET_INSERT
10
60.5
20
1550
30
0
42
0.41421356
0
VERTEX
8
POKET_INSERT
10
58
20
1547.5
30
0
0
VERTEX
8
POKET_INSERT
10
58
20
1174.5
30
0
42
0.41421356
0
SEQEND
8
POKET_INSERT
0
POLYLINE
8
SHADOW
66
1
70
1
0
VERTEX
8
SHADOW
10
58.5
20
1170
30
0
0
VERTEX
8
SHADOW
10
452.5
20
1170
30
0
42
0.41421356
0
VERTEX
8
SHADOW
10
455
20
1172.5
30
0
0
VERTEX
8
SHADOW
10
455
20
1549.5
30
0
42
0.41421356
0
VERTEX
8
SHADOW
10
452.5
20
1552
30
0
0
VERTEX
8
SHADOW
10
58.5
20
1552
30
0
42
0.41421356
0
VERTEX
8
SHADOW
10
56
20
1549.5
30
0
0
VERTEX
8
SHADOW
10
56
20
1172.5
30
0
42
0.41421356
0
SEQEND
8
SHADOW
0
CIRCLE
8
hinges
10
107
20
1143.5
40
17.5
0
CIRCLE
8
hinges
10
404
20
1143.5
40
17.5
0
TEXT
8
PART_NUMBER
10
37
20
1557
40
14
1
5
0
TEXT
8
text
10
29
20
1157
40
14
1
480 x 497
0
POLYLINE
8
OUT
66
1
70
1
0
VERTEX
8
OUT
10
64
20
671
30
0
0
VERTEX
8
OUT
10
414
20
671
30
0
0
VERTEX
8
OUT
10
414
20
1021
30
0
0
VERTEX
8
OUT
10
64
20
1021
30
0
0
SEQEND
8
OUT
0
POLYLINE
8
INSIDE
66
1
70
1
0
VERTEX
8
INSIDE
10
114
20
721
30
0
0
VERTEX
8
INSIDE
10
364
20
721
30
0
0
VERTEX
8
INSIDE
10
364
20
971
30
0
0
VERTEX
8
INSIDE
10
114
20
971
30
0
0
SEQEND
8
INSIDE
0
POLYLINE
8
BEADING
66
1
70
1
0
VERTEX
8
BEADING
10
96.5
20
701
30
0
0
VERTEX
8
BEADING
10
381.5
20
701
30
0
42
0.41421356
0
VERTEX
8
BEADING
10
384
20
703.5
30
0
0
VERTEX
8
BEADING
10
384
20
988.5
30
0
42
0.41421356
0
VERTEX
8
BEADING
10
381.5
20
991
30
0
0
VERTEX
8
BEADING
10
96.5
20
991
30
0
42
0.41421356
0
VERTEX
8
BEADING
10
94
20
988.5
30
0
0
VERTEX
8
BEADING
10
94
20
703.5
30
0
42
0.41421356
0
SEQEND
8
BEADING
0
TEXT
8
PART_NUMBER
10
94
20
977
40
14
1
4
0
TEXT
8
text
10
86
20
707
40
14
1
350 x 350
0
TEXT
8
text
10
86
20
724.36
40
14
1
Glass
0
LINE
8
OFFCUT
10
511
20
1221
11
1220
21
1221
0
LINE
8
OFFCUT
10
0
20
1608
11
508
21
1608
0
LINE
8
OFFCUT
10
508
20
1608
11
511
21
1605
0
LINE
8
OFFCUT
10
511
20
1605
11
511
21
1221
0
TEXT
8
OFFCUT_TEXT
10
22
20
1644
40
14
1
832 x 1220 / 1219 x 709
0
TEXT
8
OFFCUT_TEXT
10
22
20
1661.36
40
14
1
OFFCUT
0
POLYLINE
8
SHEET
66
1
70
1
0
VERTEX
8
SHEET
10
0
20
2690
30
0
0
VERTEX
8
SHEET
10
1220
20
2690
30
0
0
VERTEX
8
SHEET
10
1220
20
5130
30
0
0
VERTEX
8
SHEET
10
0
20
5130
30
0
0
SEQEND
8
SHEET
0
TEXT
8
text
10
40
20
5102
40
20
1
SHEET 1 BACK MDF Hidrofugo Plus 18mm - MACHINING ONLY
0
POLYLINE
8
OUT
66
1
70
1
0
VERTEX
8
OUT
10
64
20
4666
30
0
0
VERTEX
8
OUT
10
664
20
4666
30
0
0
VERTEX
8
OUT
10
664
20
5066
30
0
0
VERTEX
8
OUT
10
64
20
5066
30
0
0
SEQEND
8
OUT
0
POLYLINE
8
OFFSET_A
66
1
70
1
0
VERTEX
8
OFFSET_A
10
64
20
4666
30
0
0
VERTEX
8
OFFSET_A
10
664
20
4666
30
0
0
VERTEX
8
OFFSET_A
10
664
20
5066
30
0
0
VERTEX
8
OFFSET_A
10
64
20
5066
30
0
0
SEQEND
8
OFFSET_A
0
LINE
8
SCRIBE
10
664
20
4866
11
64
21
4866
0
TEXT
8
PART_NUMBER
10
94
20
5022
40
14
1
2
0
TEXT
8
text
10
86
20
4702
40
14
1
400 x 600
0
TEXT
8
text
10
86
20
4719.36
40
14
1
BACK
0
POLYLINE
8
OUT
66
1
70
1
0
VERTEX
8
OUT
10
714
20
3916
30
0
0
VERTEX
8
OUT
10
1114
20
3916
30
0
0
VERTEX
8
OUT
10
1114
20
4516
30
0
0
VERTEX
8
OUT
10
714
20
4516
30
0
0
SEQEND
8
OUT
0
POLYLINE
8
OFFSET_A
66
1
70
1
0
VERTEX
8
OFFSET_A
10
714
20
3916
30
0
0
VERTEX
8
OFFSET_A
10
1114
20
3916
30
0
0
VERTEX
8
OFFSET_A
10
1114
20
4516
30
0
0
VERTEX
8
OFFSET_A
10
714
20
4516
30
0
0
SEQEND
8
OFFSET_A
0
LINE
8
SCRIBE
10
914
20
3916
11
914
21
4516
0
TEXT
8
PART_NUMBER
10
758
20
4474.52
40
14
50
90
1
6
0
TEXT
8
text
10
788.1
20
3938
40
14
50
90
1
400 x 600
0
TEXT
8
text
10
805.46
20
3938
40
14
50
90
1
BACK
0
ENDSEC
0
EOF
