0
SECTION
2
HEADER
9
$ACADVER
1
AC1009
0
ENDSEC
0
SECTION
2
TABLES
0
TABLE
2
LAYER
70
9
0
LAYER
2
0
70
0
62
7
6
CONTINUOUS
0
LAYER
2
text
70
0
62
7
6
CONTINUOUS
0
LAYER
2
SHEET
70
0
62
7
6
CONTINUOUS
0
LAYER
2
OUT
70
0
62
150
6
CONTINUOUS
0
LAYER
2
INSIDE
70
0
62
5
6
CONTINUOUS
0
LAYER
2
BEADING
70
0
62
34
6
CONTINUOUS
0
LAYER
2
PART_NUMBER
70
0
62
7
6
CONTINUOUS
0
LAYER
2
OFFCUT
70
0
62
6
6
CONTINUOUS
0
LAYER
2
OFFCUT_TEXT
70
0
62
4
6
CONTINUOUS
0
ENDTAB
0
ENDSEC
0
SECTION
2
ENTITIES
0
POLYLINE
8
SHEET
66
1
70
1
0
VERTEX
8
SHEET
10
0
20
0
30
0
0
VERTEX
8
SHEET
10
1220
20
0
30
0
0
VERTEX
8
SHEET
10
1220
20
2440
30
0
0
VERTEX
8
SHEET
10
0
20
2440
30
0
0
SEQEND
8
SHEET
0
TEXT
8
text
10
40
20
2412
40
20
1
SHEET 1 MDF Hidrofugo Plus 3mm
0
POLYLINE
8
OUT
66
1
70
1
0
VERTEX
8
OUT
10
9.5
20
7
30
0
0
VERTEX
8
OUT
10
294.2
20
7
30
0
42
0.41421356
0
VERTEX
8
OUT
10
296.7
20
9.5
30
0
0
VERTEX
8
OUT
10
296.7
20
294.2
30
0
42
0.41421356
0
VERTEX
8
OUT
10
294.2
20
296.7
30
0
0
VERTEX
8
OUT
10
9.5
20
296.7
30
0
42
0.41421356
0
VERTEX
8
OUT
10
7
20
294.2
30
0
0
VERTEX
8
OUT
10
7
20
9.5
30
0
42
0.41421356
0
SEQEND
8
OUT
0
POLYLINE
8
INSIDE
66
1
70
1
0
VERTEX
8
INSIDE
10
26.85
20
26.85
30
0
0
VERTEX
8
INSIDE
10
276.85
20
26.85
30
0
0
VERTEX
8
INSIDE
10
276.85
20
276.85
30
0
0
VERTEX
8
INSIDE
10
26.85
20
276.85
30
0
0
SEQEND
8
INSIDE
0
POLYLINE
8
BEADING
66
1
70
1
0
VERTEX
8
BEADING
10
9.35
20
6.85
30
0
0
VERTEX
8
BEADING
10
294.35
20
6.85
30
0
42
0.41421356
0
VERTEX
8
BEADING
10
296.85
20
9.35
30
0
0
VERTEX
8
BEADING
10
296.85
20
294.35
30
0
42
0.41421356
0
VERTEX
8
BEADING
10
294.35
20
296.85
30
0
0
VERTEX
8
BEADING
10
9.35
20
296.85
30
0
42
0.41421356
0
VERTEX
8
BEADING
10
6.85
20
294.35
30
0
0
VERTEX
8
BEADING
10
6.85
20
9.35
30
0
42
0.41421356
0
SEQEND
8
BEADING
0
TEXT
8
PART_NUMBER
10
37
20
253.66
40
13.04
1
11
0
TEXT
8
text
10
27.28
20
41.28
40
14
1
289.7 x 289.7
0
TEXT
8
text
10
27.28
20
58.64
40
14
1
Glass Beading 19.85mm
0
LINE
8
OFFCUT
10
0
20
304
11
301
21
304
0
LINE
8
OFFCUT
10
301
20
304
11
304
21
301
0
LINE
8
OFFCUT
10
304
20
301
11
304
21
0
0
TEXT
8
OFFCUT_TEXT
10
36
20
326
40
14
50
90
1
2136 x 1220 / 2440 x 916
0
TEXT
8
OFFCUT_TEXT
10
53.36
20
326
40
14
50
90
1
OFFCUT
0
ENDSEC
0
EOF
