0
SECTION
2
HEADER
9
$ACADVER
1
AC1009
0
ENDSEC
0
SECTION
2
TABLES
0
TABLE
2
LAYER
70
9
0
LAYER
2
0
70
0
62
7
6
CONTINUOUS
0
LAYER
2
text
70
0
62
7
6
CONTINUOUS
0
LAYER
2
SHEET
70
0
62
7
6
CONTINUOUS
0
LAYER
2
OUT
70
0
62
150
6
CONTINUOUS
0
LAYER
2
IN
70
0
62
5
6
CONTINUOUS
0
LAYER
2
REEDED
70
0
62
132
6
CONTINUOUS
0
LAYER
2
PART_NUMBER
70
0
62
7
6
CONTINUOUS
0
LAYER
2
OFFCUT
70
0
62
6
6
CONTINUOUS
0
LAYER
2
OFFCUT_TEXT
70
0
62
4
6
CONTINUOUS
0
ENDTAB
0
ENDSEC
0
SECTION
2
ENTITIES
0
POLYLINE
8
SHEET
66
1
70
1
0
VERTEX
8
SHEET
10
0
20
0
30
0
0
VERTEX
8
SHEET
10
1220
20
0
30
0
0
VERTEX
8
SHEET
10
1220
20
2440
30
0
0
VERTEX
8
SHEET
10
0
20
2440
30
0
0
SEQEND
8
SHEET
0
TEXT
8
text
10
40
20
2412
40
20
1
SHEET 1 MR MDF 12mm
0
POLYLINE
8
OUT
66
1
70
1
0
VERTEX
8
OUT
10
7
20
7
30
0
0
VERTEX
8
OUT
10
635
20
7
30
0
0
VERTEX
8
OUT
10
635
20
435
30
0
0
VERTEX
8
OUT
10
7
20
435
30
0
0
SEQEND
8
OUT
0
POLYLINE
8
IN
66
1
70
1
0
VERTEX
8
IN
10
14
20
14
30
0
0
VERTEX
8
IN
10
628
20
14
30
0
0
VERTEX
8
IN
10
628
20
428
30
0
0
VERTEX
8
IN
10
14
20
428
30
0
0
SEQEND
8
IN
0
POLYLINE
8
IN
66
1
70
1
0
VERTEX
8
IN
10
21
20
21
30
0
0
VERTEX
8
IN
10
621
20
21
30
0
0
VERTEX
8
IN
10
621
20
421
30
0
0
VERTEX
8
IN
10
21
20
421
30
0
0
SEQEND
8
IN
0
LINE
8
REEDED
10
627
20
15
11
15
21
15
0
LINE
8
REEDED
10
15
20
27.5
11
627
21
27.5
0
LINE
8
REEDED
10
627
20
40
11
15
21
40
0
LINE
8
REEDED
10
15
20
52.5
11
627
21
52.5
0
LINE
8
REEDED
10
627
20
65
11
15
21
65
0
LINE
8
REEDED
10
15
20
77.5
11
627
21
77.5
0
LINE
8
REEDED
10
627
20
90
11
15
21
90
0
LINE
8
REEDED
10
15
20
102.5
11
627
21
102.5
0
LINE
8
REEDED
10
627
20
115
11
15
21
115
0
LINE
8
REEDED
10
15
20
127.5
11
627
21
127.5
0
LINE
8
REEDED
10
627
20
140
11
15
21
140
0
LINE
8
REEDED
10
15
20
152.5
11
627
21
152.5
0
LINE
8
REEDED
10
627
20
165
11
15
21
165
0
LINE
8
REEDED
10
15
20
177.5
11
627
21
177.5
0
LINE
8
REEDED
10
627
20
190
11
15
21
190
0
LINE
8
REEDED
10
15
20
202.5
11
627
21
202.5
0
LINE
8
REEDED
10
627
20
215
11
15
21
215
0
LINE
8
REEDED
10
15
20
227.5
11
627
21
227.5
0
LINE
8
REEDED
10
627
20
240
11
15
21
240
0
LINE
8
REEDED
10
15
20
252.5
11
627
21
252.5
0
LINE
8
REEDED
10
627
20
265
11
15
21
265
0
LINE
8
REEDED
10
15
20
277.5
11
627
21
277.5
0
LINE
8
REEDED
10
627
20
290
11
15
21
290
0
LINE
8
REEDED
10
15
20
302.5
11
627
21
302.5
0
LINE
8
REEDED
10
627
20
315
11
15
21
315
0
LINE
8
REEDED
10
15
20
327.5
11
627
21
327.5
0
LINE
8
REEDED
10
627
20
340
11
15
21
340
0
LINE
8
REEDED
10
15
20
352.5
11
627
21
352.5
0
LINE
8
REEDED
10
627
20
365
11
15
21
365
0
LINE
8
REEDED
10
15
20
377.5
11
627
21
377.5
0
LINE
8
REEDED
10
627
20
390
11
15
21
390
0
LINE
8
REEDED
10
15
20
402.5
11
627
21
402.5
0
LINE
8
REEDED
10
627
20
415
11
15
21
415
0
LINE
8
REEDED
10
15
20
427.5
11
627
21
427.5
0
TEXT
8
PART_NUMBER
10
37
20
391
40
14
1
7
0
TEXT
8
text
10
29
20
43
40
14
1
428 x 628
0
TEXT
8
text
10
29
20
60.36
40
14
1
Reeded
0
POLYLINE
8
OUT
66
1
70
1
0
VERTEX
8
OUT
10
644.5
20
7
30
0
0
VERTEX
8
OUT
10
1034.4
20
7
30
0
42
0.41421356
0
VERTEX
8
OUT
10
1036.9
20
9.5
30
0
0
VERTEX
8
OUT
10
1036.9
20
382.4
30
0
42
0.41421356
0
VERTEX
8
OUT
10
1034.4
20
384.9
30
0
0
VERTEX
8
OUT
10
644.5
20
384.9
30
0
42
0.41421356
0
VERTEX
8
OUT
10
642
20
382.4
30
0
0
VERTEX
8
OUT
10
642
20
9.5
30
0
42
0.41421356
0
SEQEND
8
OUT
0
POLYLINE
8
IN
66
1
70
1
0
VERTEX
8
IN
10
651.4
20
13.9
30
0
0
VERTEX
8
IN
10
1027.5
20
13.9
30
0
42
0.41421356
0
VERTEX
8
IN
10
1030
20
16.4
30
0
0
VERTEX
8
IN
10
1030
20
375.5
30
0
42
0.41421356
0
VERTEX
8
IN
10
1027.5
20
378
30
0
0
VERTEX
8
IN
10
651.4
20
378
30
0
42
0.41421356
0
VERTEX
8
IN
10
648.9
20
375.5
30
0
0
VERTEX
8
IN
10
648.9
20
16.4
30
0
42
0.41421356
0
SEQEND
8
IN
0
POLYLINE
8
IN
66
1
70
1
0
VERTEX
8
IN
10
656.45
20
18.95
30
0
0
VERTEX
8
IN
10
1022.45
20
18.95
30
0
42
0.41421356
0
VERTEX
8
IN
10
1024.95
20
21.45
30
0
0
VERTEX
8
IN
10
1024.95
20
370.45
30
0
42
0.41421356
0
VERTEX
8
IN
10
1022.45
20
372.95
30
0
0
VERTEX
8
IN
10
656.45
20
372.95
30
0
42
0.41421356
0
VERTEX
8
IN
10
653.95
20
370.45
30
0
0
VERTEX
8
IN
10
653.95
20
21.45
30
0
42
0.41421356
0
SEQEND
8
IN
0
TEXT
8
PART_NUMBER
10
672
20
340.9
40
14
1
8
0
TEXT
8
text
10
664
20
43
40
14
1
377.9 x 394.9
0
TEXT
8
text
10
664
20
60.36
40
14
1
Flushback
0
LINE
8
OFFCUT
10
642
20
395
11
645
21
392
0
LINE
8
OFFCUT
10
645
20
392
11
1220
21
392
0
LINE
8
OFFCUT
10
0
20
442
11
642
21
442
0
LINE
8
OFFCUT
10
642
20
442
11
642
21
395
0
TEXT
8
OFFCUT_TEXT
10
36
20
464
40
14
50
90
1
1998 x 1220 / 2048 x 578
0
TEXT
8
OFFCUT_TEXT
10
53.36
20
464
40
14
50
90
1
OFFCUT
0
ENDSEC
0
EOF
