0
SECTION
2
HEADER
9
$ACADVER
1
AC1009
0
ENDSEC
0
SECTION
2
TABLES
0
TABLE
2
LAYER
70
7
0
LAYER
2
0
70
0
62
7
6
CONTINUOUS
0
LAYER
2
text
70
0
62
7
6
CONTINUOUS
0
LAYER
2
SHEET
70
0
62
7
6
CONTINUOUS
0
LAYER
2
OUT
70
0
62
150
6
CONTINUOUS
0
LAYER
2
PART_NUMBER
70
0
62
7
6
CONTINUOUS
0
LAYER
2
OFFCUT
70
0
62
6
6
CONTINUOUS
0
LAYER
2
OFFCUT_TEXT
70
0
62
4
6
CONTINUOUS
0
ENDTAB
0
ENDSEC
0
SECTION
2
ENTITIES
0
POLYLINE
8
SHEET
66
1
70
1
0
VERTEX
8
SHEET
10
0
20
0
30
0
0
VERTEX
8
SHEET
10
1220
20
0
30
0
0
VERTEX
8
SHEET
10
1220
20
2440
30
0
0
VERTEX
8
SHEET
10
0
20
2440
30
0
0
SEQEND
8
SHEET
0
TEXT
8
text
10
40
20
2412
40
20
1
SHEET 1 MDF Hidrofugo Plus 18mm
0
POLYLINE
8
OUT
66
1
70
1
0
VERTEX
8
OUT
10
7
20
7
30
0
0
VERTEX
8
OUT
10
722
20
7
30
0
0
VERTEX
8
OUT
10
722
20
502
30
0
0
VERTEX
8
OUT
10
7
20
502
30
0
0
SEQEND
8
OUT
0
TEXT
8
PART_NUMBER
10
37
20
458
40
14
1
1
0
TEXT
8
text
10
29
20
43
40
14
1
715 x 495
0
POLYLINE
8
OUT
66
1
70
1
0
VERTEX
8
OUT
10
7
20
509
30
0
0
VERTEX
8
OUT
10
722
20
509
30
0
0
VERTEX
8
OUT
10
722
20
1004
30
0
0
VERTEX
8
OUT
10
7
20
1004
30
0
0
SEQEND
8
OUT
0
TEXT
8
PART_NUMBER
10
37
20
960
40
14
1
2
0
TEXT
8
text
10
29
20
545
40
14
1
715 x 495
0
POLYLINE
8
OUT
66
1
70
1
0
VERTEX
8
OUT
10
729
20
7
30
0
0
VERTEX
8
OUT
10
1129
20
7
30
0
0
VERTEX
8
OUT
10
1129
20
607
30
0
0
VERTEX
8
OUT
10
729
20
607
30
0
0
SEQEND
8
OUT
0
TEXT
8
PART_NUMBER
10
773
20
565.52
40
14
50
90
1
8
0
TEXT
8
text
10
803.1
20
29
40
14
50
90
1
600 x 400
0
POLYLINE
8
OUT
66
1
70
1
0
VERTEX
8
OUT
10
729
20
614
30
0
0
VERTEX
8
OUT
10
1129
20
614
30
0
0
VERTEX
8
OUT
10
1129
20
1214
30
0
0
VERTEX
8
OUT
10
729
20
1214
30
0
0
SEQEND
8
OUT
0
TEXT
8
PART_NUMBER
10
773
20
1172.52
40
14
50
90
1
9
0
TEXT
8
text
10
803.1
20
636
40
14
50
90
1
600 x 400
0
POLYLINE
8
OUT
66
1
70
1
0
VERTEX
8
OUT
10
7
20
1011
30
0
0
VERTEX
8
OUT
10
607
20
1011
30
0
0
VERTEX
8
OUT
10
607
20
1411
30
0
0
VERTEX
8
OUT
10
7
20
1411
30
0
0
SEQEND
8
OUT
0
TEXT
8
PART_NUMBER
10
37
20
1367
40
14
1
3
0
TEXT
8
text
10
29
20
1047
40
14
1
600 x 400
0
POLYLINE
8
OUT
66
1
70
1
0
VERTEX
8
OUT
10
614
20
1221
30
0
0
VERTEX
8
OUT
10
1014
20
1221
30
0
0
VERTEX
8
OUT
10
1014
20
1821
30
0
0
VERTEX
8
OUT
10
614
20
1821
30
0
0
SEQEND
8
OUT
0
TEXT
8
PART_NUMBER
10
658
20
1779.52
40
14
50
90
1
6
0
TEXT
8
text
10
688.1
20
1243
40
14
50
90
1
600 x 400
0
POLYLINE
8
OUT
66
1
70
1
0
VERTEX
8
OUT
10
7
20
1418
30
0
0
VERTEX
8
OUT
10
607
20
1418
30
0
0
VERTEX
8
OUT
10
607
20
1818
30
0
0
VERTEX
8
OUT
10
7
20
1818
30
0
0
SEQEND
8
OUT
0
TEXT
8
PART_NUMBER
10
37
20
1774
40
14
1
4
0
TEXT
8
text
10
29
20
1454
40
14
1
600 x 400
0
POLYLINE
8
OUT
66
1
70
1
0
VERTEX
8
OUT
10
7
20
1825
30
0
0
VERTEX
8
OUT
10
607
20
1825
30
0
0
VERTEX
8
OUT
10
607
20
2225
30
0
0
VERTEX
8
OUT
10
7
20
2225
30
0
0
SEQEND
8
OUT
0
TEXT
8
PART_NUMBER
10
37
20
2181
40
14
1
5
0
TEXT
8
text
10
29
20
1861
40
14
1
600 x 400
0
POLYLINE
8
OUT
66
1
70
1
0
VERTEX
8
OUT
10
614
20
1828
30
0
0
VERTEX
8
OUT
10
914
20
1828
30
0
0
VERTEX
8
OUT
10
914
20
2128
30
0
0
VERTEX
8
OUT
10
614
20
2128
30
0
0
SEQEND
8
OUT
0
TEXT
8
PART_NUMBER
10
644
20
2084.5
40
13.5
1
7
0
TEXT
8
text
10
635
20
1863
40
14
1
300 x 300
0
POLYLINE
8
SHEET
66
1
70
1
0
VERTEX
8
SHEET
10
0
20
2690
30
0
0
VERTEX
8
SHEET
10
1220
20
2690
30
0
0
VERTEX
8
SHEET
10
1220
20
5130
30
0
0
VERTEX
8
SHEET
10
0
20
5130
30
0
0
SEQEND
8
SHEET
0
TEXT
8
text
10
40
20
5102
40
20
1
SHEET 2 MDF Hidrofugo Plus 18mm
0
POLYLINE
8
OUT
66
1
70
1
0
VERTEX
8
OUT
10
7
20
2697
30
0
0
VERTEX
8
OUT
10
307
20
2697
30
0
0
VERTEX
8
OUT
10
307
20
2997
30
0
0
VERTEX
8
OUT
10
7
20
2997
30
0
0
SEQEND
8
OUT
0
TEXT
8
PART_NUMBER
10
37
20
2953.5
40
13.5
1
10
0
TEXT
8
text
10
28
20
2732
40
14
1
300 x 300
0
POLYLINE
8
OUT
66
1
70
1
0
VERTEX
8
OUT
10
314
20
2697
30
0
0
VERTEX
8
OUT
10
614
20
2697
30
0
0
VERTEX
8
OUT
10
614
20
2997
30
0
0
VERTEX
8
OUT
10
314
20
2997
30
0
0
SEQEND
8
OUT
0
TEXT
8
PART_NUMBER
10
344
20
2953.5
40
13.5
1
11
0
TEXT
8
text
10
335
20
2732
40
14
1
300 x 300
0
POLYLINE
8
OUT
66
1
70
1
0
VERTEX
8
OUT
10
621
20
2697
30
0
0
VERTEX
8
OUT
10
921
20
2697
30
0
0
VERTEX
8
OUT
10
921
20
2997
30
0
0
VERTEX
8
OUT
10
621
20
2997
30
0
0
SEQEND
8
OUT
0
TEXT
8
PART_NUMBER
10
651
20
2953.5
40
13.5
1
12
0
TEXT
8
text
10
642
20
2732
40
14
1
300 x 300
0
LINE
8
OFFCUT
10
0
20
3004
11
925
21
3004
0
LINE
8
OFFCUT
10
925
20
3004
11
928
21
3001
0
LINE
8
OFFCUT
10
928
20
3001
11
928
21
2690
0
TEXT
8
OFFCUT_TEXT
10
36
20
3026
40
14
50
90
1
2126 x 1220 / 2440 x 292
0
TEXT
8
OFFCUT_TEXT
10
53.36
20
3026
40
14
50
90
1
OFFCUT
0
ENDSEC
0
EOF
