0
SECTION
2
HEADER
9
$ACADVER
1
AC1009
0
ENDSEC
0
SECTION
2
TABLES
0
TABLE
2
LAYER
70
7
0
LAYER
2
0
70
0
62
7
6
CONTINUOUS
0
LAYER
2
text
70
0
62
7
6
CONTINUOUS
0
LAYER
2
SHEET
70
0
62
7
6
CONTINUOUS
0
LAYER
2
OUT
70
0
62
150
6
CONTINUOUS
0
LAYER
2
OFFSET_A
70
0
62
30
6
CONTINUOUS
0
LAYER
2
INSIDE
70
0
62
5
6
CONTINUOUS
0
LAYER
2
PART_NUMBER
70
0
62
7
6
CONTINUOUS
0
ENDTAB
0
ENDSEC
0
SECTION
2
ENTITIES
0
POLYLINE
8
SHEET
66
1
70
1
0
VERTEX
8
SHEET
10
0
20
0
30
0
0
VERTEX
8
SHEET
10
1220
20
0
30
0
0
VERTEX
8
SHEET
10
1220
20
3050
30
0
0
VERTEX
8
SHEET
10
0
20
3050
30
0
0
SEQEND
8
SHEET
0
TEXT
8
text
10
40
20
3022
40
20
1
SHEET 1 PANELS Room 1 MDF 18mm
0
POLYLINE
8
OUT
66
1
70
1
0
VERTEX
8
OUT
10
7
20
7
30
0
0
VERTEX
8
OUT
10
1037
20
7
30
0
0
VERTEX
8
OUT
10
1037
20
2607
30
0
0
VERTEX
8
OUT
10
7
20
2607
30
0
0
SEQEND
8
OUT
0
POLYLINE
8
OFFSET_A
66
1
70
1
0
VERTEX
8
OFFSET_A
10
87
20
47
30
0
0
VERTEX
8
OFFSET_A
10
732
20
47
30
0
0
VERTEX
8
OFFSET_A
10
732
20
382.63
30
0
0
VERTEX
8
OFFSET_A
10
87
20
382.63
30
0
0
SEQEND
8
OFFSET_A
0
POLYLINE
8
OFFSET_A
66
1
70
1
0
VERTEX
8
OFFSET_A
10
87
20
462.63
30
0
0
VERTEX
8
OFFSET_A
10
732
20
462.63
30
0
0
VERTEX
8
OFFSET_A
10
732
20
811.5
30
0
0
VERTEX
8
OFFSET_A
10
87
20
811.5
30
0
0
SEQEND
8
OFFSET_A
0
POLYLINE
8
OFFSET_A
66
1
70
1
0
VERTEX
8
OFFSET_A
10
87
20
891.5
30
0
0
VERTEX
8
OFFSET_A
10
732
20
891.5
30
0
0
VERTEX
8
OFFSET_A
10
732
20
1240.38
30
0
0
VERTEX
8
OFFSET_A
10
87
20
1240.38
30
0
0
SEQEND
8
OFFSET_A
0
POLYLINE
8
OFFSET_A
66
1
70
1
0
VERTEX
8
OFFSET_A
10
87
20
1320.38
30
0
0
VERTEX
8
OFFSET_A
10
732
20
1320.38
30
0
0
VERTEX
8
OFFSET_A
10
732
20
1669.25
30
0
0
VERTEX
8
OFFSET_A
10
87
20
1669.25
30
0
0
SEQEND
8
OFFSET_A
0
POLYLINE
8
OFFSET_A
66
1
70
1
0
VERTEX
8
OFFSET_A
10
87
20
1749.25
30
0
0
VERTEX
8
OFFSET_A
10
732
20
1749.25
30
0
0
VERTEX
8
OFFSET_A
10
732
20
2098.13
30
0
0
VERTEX
8
OFFSET_A
10
87
20
2098.13
30
0
0
SEQEND
8
OFFSET_A
0
POLYLINE
8
OFFSET_A
66
1
70
1
0
VERTEX
8
OFFSET_A
10
87
20
2178.13
30
0
0
VERTEX
8
OFFSET_A
10
732
20
2178.13
30
0
0
VERTEX
8
OFFSET_A
10
732
20
2527
30
0
0
VERTEX
8
OFFSET_A
10
87
20
2527
30
0
0
SEQEND
8
OFFSET_A
0
POLYLINE
8
INSIDE
66
1
70
1
0
VERTEX
8
INSIDE
10
7
20
607
30
0
0
VERTEX
8
INSIDE
10
1037
20
607
30
0
0
VERTEX
8
INSIDE
10
1037
20
1807
30
0
0
VERTEX
8
INSIDE
10
7
20
1807
30
0
0
SEQEND
8
INSIDE
0
TEXT
8
PART_NUMBER
10
51
20
2565.52
40
14
50
90
1
3
0
TEXT
8
text
10
81.1
20
29
40
14
50
90
1
2600 x 1030
0
TEXT
8
text
10
98.46
20
29
40
14
50
90
1
Room 1 Wall 2A
0
POLYLINE
8
SHEET
66
1
70
1
0
VERTEX
8
SHEET
10
0
20
3300
30
0
0
VERTEX
8
SHEET
10
1220
20
3300
30
0
0
VERTEX
8
SHEET
10
1220
20
5740
30
0
0
VERTEX
8
SHEET
10
0
20
5740
30
0
0
SEQEND
8
SHEET
0
TEXT
8
text
10
40
20
5712
40
20
1
SHEET 2 PANELS Room 1 MDF 18mm
0
POLYLINE
8
OUT
66
1
70
1
0
VERTEX
8
OUT
10
7
20
3307
30
0
0
VERTEX
8
OUT
10
1207
20
3307
30
0
0
VERTEX
8
OUT
10
1207
20
4207
30
0
0
VERTEX
8
OUT
10
7
20
4207
30
0
0
SEQEND
8
OUT
0
POLYLINE
8
OFFSET_A
66
1
70
1
0
VERTEX
8
OFFSET_A
10
47
20
3387
30
0
0
VERTEX
8
OFFSET_A
10
367
20
3387
30
0
0
VERTEX
8
OFFSET_A
10
367
20
3902
30
0
0
VERTEX
8
OFFSET_A
10
47
20
3902
30
0
0
SEQEND
8
OFFSET_A
0
POLYLINE
8
OFFSET_A
66
1
70
1
0
VERTEX
8
OFFSET_A
10
447
20
3387
30
0
0
VERTEX
8
OFFSET_A
10
767
20
3387
30
0
0
VERTEX
8
OFFSET_A
10
767
20
3902
30
0
0
VERTEX
8
OFFSET_A
10
447
20
3902
30
0
0
SEQEND
8
OFFSET_A
0
POLYLINE
8
OFFSET_A
66
1
70
1
0
VERTEX
8
OFFSET_A
10
847
20
3387
30
0
0
VERTEX
8
OFFSET_A
10
1167
20
3387
30
0
0
VERTEX
8
OFFSET_A
10
1167
20
3902
30
0
0
VERTEX
8
OFFSET_A
10
847
20
3902
30
0
0
SEQEND
8
OFFSET_A
0
TEXT
8
PART_NUMBER
10
37
20
4163
40
14
1
4
0
TEXT
8
text
10
29
20
3343
40
14
1
1200 x 900
0
TEXT
8
text
10
29
20
3360.36
40
14
1
Room 1 Wall 2B
0
POLYLINE
8
OUT
66
1
70
1
0
VERTEX
8
OUT
10
7
20
4214
30
0
0
VERTEX
8
OUT
10
1037
20
4214
30
0
0
VERTEX
8
OUT
10
1037
20
5114
30
0
0
VERTEX
8
OUT
10
7
20
5114
30
0
0
SEQEND
8
OUT
0
POLYLINE
8
OFFSET_A
66
1
70
1
0
VERTEX
8
OFFSET_A
10
87
20
4389
30
0
0
VERTEX
8
OFFSET_A
10
732
20
4389
30
0
0
VERTEX
8
OFFSET_A
10
732
20
4658.38
30
0
0
VERTEX
8
OFFSET_A
10
87
20
4658.38
30
0
0
SEQEND
8
OFFSET_A
0
POLYLINE
8
OFFSET_A
66
1
70
1
0
VERTEX
8
OFFSET_A
10
87
20
4738.38
30
0
0
VERTEX
8
OFFSET_A
10
732
20
4738.38
30
0
0
VERTEX
8
OFFSET_A
10
732
20
5074
30
0
0
VERTEX
8
OFFSET_A
10
87
20
5074
30
0
0
SEQEND
8
OFFSET_A
0
TEXT
8
PART_NUMBER
10
37
20
5070
40
14
1
2
0
TEXT
8
text
10
29
20
4250
40
14
1
900 x 1030
0
TEXT
8
text
10
29
20
4267.36
40
14
1
Room 1 Wall 1B
0
POLYLINE
8
SHEET
66
1
70
1
0
VERTEX
8
SHEET
10
0
20
5990
30
0
0
VERTEX
8
SHEET
10
1220
20
5990
30
0
0
VERTEX
8
SHEET
10
1220
20
8430
30
0
0
VERTEX
8
SHEET
10
0
20
8430
30
0
0
SEQEND
8
SHEET
0
TEXT
8
text
10
40
20
8402
40
20
1
SHEET 3 PANELS Room 1 MDF 18mm
0
POLYLINE
8
OUT
66
1
70
1
0
VERTEX
8
OUT
10
7
20
5997
30
0
0
VERTEX
8
OUT
10
1037
20
5997
30
0
0
VERTEX
8
OUT
10
1037
20
6797
30
0
0
VERTEX
8
OUT
10
7
20
6797
30
0
0
SEQEND
8
OUT
0
POLYLINE
8
OFFSET_A
66
1
70
1
0
VERTEX
8
OFFSET_A
10
87
20
6077
30
0
0
VERTEX
8
OFFSET_A
10
732
20
6077
30
0
0
VERTEX
8
OFFSET_A
10
732
20
6309.5
30
0
0
VERTEX
8
OFFSET_A
10
87
20
6309.5
30
0
0
SEQEND
8
OFFSET_A
0
POLYLINE
8
OFFSET_A
66
1
70
1
0
VERTEX
8
OFFSET_A
10
87
20
6389.5
30
0
0
VERTEX
8
OFFSET_A
10
732
20
6389.5
30
0
0
VERTEX
8
OFFSET_A
10
732
20
6622
30
0
0
VERTEX
8
OFFSET_A
10
87
20
6622
30
0
0
SEQEND
8
OFFSET_A
0
TEXT
8
PART_NUMBER
10
37
20
6753
40
14
1
1
0
TEXT
8
text
10
29
20
6033
40
14
1
800 x 1030
0
TEXT
8
text
10
29
20
6050.36
40
14
1
Room 1 Wall 1A
0
POLYLINE
8
SHEET
66
1
70
1
0
VERTEX
8
SHEET
10
0
20
8680
30
0
0
VERTEX
8
SHEET
10
1220
20
8680
30
0
0
VERTEX
8
SHEET
10
1220
20
11730
30
0
0
VERTEX
8
SHEET
10
0
20
11730
30
0
0
SEQEND
8
SHEET
0
TEXT
8
text
10
40
20
11702
40
20
1
SHEET 4 PANELS Room 2 MDF 18mm
0
POLYLINE
8
OUT
66
1
70
1
0
VERTEX
8
OUT
10
7
20
8687
30
0
0
VERTEX
8
OUT
10
874
20
8687
30
0
0
VERTEX
8
OUT
10
874
20
11687
30
0
0
VERTEX
8
OUT
10
7
20
11687
30
0
0
SEQEND
8
OUT
0
POLYLINE
8
OFFSET_A
66
1
70
1
0
VERTEX
8
OFFSET_A
10
87
20
10737
30
0
0
VERTEX
8
OFFSET_A
10
420.33
20
10737
30
0
0
VERTEX
8
OFFSET_A
10
420.33
20
11382
30
0
0
VERTEX
8
OFFSET_A
10
87
20
11382
30
0
0
SEQEND
8
OFFSET_A
0
POLYLINE
8
OFFSET_A
66
1
70
1
0
VERTEX
8
OFFSET_A
10
500.33
20
10737
30
0
0
VERTEX
8
OFFSET_A
10
833.67
20
10737
30
0
0
VERTEX
8
OFFSET_A
10
833.67
20
11382
30
0
0
VERTEX
8
OFFSET_A
10
500.33
20
11382
30
0
0
SEQEND
8
OFFSET_A
0
POLYLINE
8
OFFSET_A
66
1
70
1
0
VERTEX
8
OFFSET_A
10
87
20
8767
30
0
0
VERTEX
8
OFFSET_A
10
420.33
20
8767
30
0
0
VERTEX
8
OFFSET_A
10
420.33
20
10657
30
0
0
VERTEX
8
OFFSET_A
10
87
20
10657
30
0
0
SEQEND
8
OFFSET_A
0
POLYLINE
8
OFFSET_A
66
1
70
1
0
VERTEX
8
OFFSET_A
10
500.33
20
8767
30
0
0
VERTEX
8
OFFSET_A
10
833.67
20
8767
30
0
0
VERTEX
8
OFFSET_A
10
833.67
20
10657
30
0
0
VERTEX
8
OFFSET_A
10
500.33
20
10657
30
0
0
SEQEND
8
OFFSET_A
0
TEXT
8
PART_NUMBER
10
51
20
11645.52
40
14
50
90
1
5
0
TEXT
8
text
10
81.1
20
8709
40
14
50
90
1
867 x 3000
0
TEXT
8
text
10
98.46
20
8709
40
14
50
90
1
Room 2 Wall 1A
0
POLYLINE
8
SHEET
66
1
70
1
0
VERTEX
8
SHEET
10
0
20
11980
30
0
0
VERTEX
8
SHEET
10
1220
20
11980
30
0
0
VERTEX
8
SHEET
10
1220
20
15030
30
0
0
VERTEX
8
SHEET
10
0
20
15030
30
0
0
SEQEND
8
SHEET
0
TEXT
8
text
10
40
20
15002
40
20
1
SHEET 5 PANELS Room 2 MDF 18mm
0
POLYLINE
8
OUT
66
1
70
1
0
VERTEX
8
OUT
10
7
20
11987
30
0
0
VERTEX
8
OUT
10
874
20
11987
30
0
0
VERTEX
8
OUT
10
874
20
14987
30
0
0
VERTEX
8
OUT
10
7
20
14987
30
0
0
SEQEND
8
OUT
0
POLYLINE
8
OFFSET_A
66
1
70
1
0
VERTEX
8
OFFSET_A
10
47
20
14037
30
0
0
VERTEX
8
OFFSET_A
10
400.33
20
14037
30
0
0
VERTEX
8
OFFSET_A
10
400.33
20
14682
30
0
0
VERTEX
8
OFFSET_A
10
47
20
14682
30
0
0
SEQEND
8
OFFSET_A
0
POLYLINE
8
OFFSET_A
66
1
70
1
0
VERTEX
8
OFFSET_A
10
480.33
20
14037
30
0
0
VERTEX
8
OFFSET_A
10
833.67
20
14037
30
0
0
VERTEX
8
OFFSET_A
10
833.67
20
14682
30
0
0
VERTEX
8
OFFSET_A
10
480.33
20
14682
30
0
0
SEQEND
8
OFFSET_A
0
POLYLINE
8
OFFSET_A
66
1
70
1
0
VERTEX
8
OFFSET_A
10
47
20
12067
30
0
0
VERTEX
8
OFFSET_A
10
400.33
20
12067
30
0
0
VERTEX
8
OFFSET_A
10
400.33
20
13957
30
0
0
VERTEX
8
OFFSET_A
10
47
20
13957
30
0
0
SEQEND
8
OFFSET_A
0
POLYLINE
8
OFFSET_A
66
1
70
1
0
VERTEX
8
OFFSET_A
10
480.33
20
12067
30
0
0
VERTEX
8
OFFSET_A
10
833.67
20
12067
30
0
0
VERTEX
8
OFFSET_A
10
833.67
20
13957
30
0
0
VERTEX
8
OFFSET_A
10
480.33
20
13957
30
0
0
SEQEND
8
OFFSET_A
0
TEXT
8
PART_NUMBER
10
51
20
14945.52
40
14
50
90
1
6
0
TEXT
8
text
10
81.1
20
12009
40
14
50
90
1
867 x 3000
0
TEXT
8
text
10
98.46
20
12009
40
14
50
90
1
Room 2 Wall 1B
0
POLYLINE
8
SHEET
66
1
70
1
0
VERTEX
8
SHEET
10
0
20
15280
30
0
0
VERTEX
8
SHEET
10
1220
20
15280
30
0
0
VERTEX
8
SHEET
10
1220
20
18330
30
0
0
VERTEX
8
SHEET
10
0
20
18330
30
0
0
SEQEND
8
SHEET
0
TEXT
8
text
10
40
20
18302
40
20
1
SHEET 6 PANELS Room 2 MDF 18mm
0
POLYLINE
8
OUT
66
1
70
1
0
VERTEX
8
OUT
10
7
20
15287
30
0
0
VERTEX
8
OUT
10
874
20
15287
30
0
0
VERTEX
8
OUT
10
874
20
18287
30
0
0
VERTEX
8
OUT
10
7
20
18287
30
0
0
SEQEND
8
OUT
0
POLYLINE
8
OFFSET_A
66
1
70
1
0
VERTEX
8
OFFSET_A
10
47
20
17337
30
0
0
VERTEX
8
OFFSET_A
10
380.33
20
17337
30
0
0
VERTEX
8
OFFSET_A
10
380.33
20
17982
30
0
0
VERTEX
8
OFFSET_A
10
47
20
17982
30
0
0
SEQEND
8
OFFSET_A
0
POLYLINE
8
OFFSET_A
66
1
70
1
0
VERTEX
8
OFFSET_A
10
460.33
20
17337
30
0
0
VERTEX
8
OFFSET_A
10
793.67
20
17337
30
0
0
VERTEX
8
OFFSET_A
10
793.67
20
17982
30
0
0
VERTEX
8
OFFSET_A
10
460.33
20
17982
30
0
0
SEQEND
8
OFFSET_A
0
POLYLINE
8
OFFSET_A
66
1
70
1
0
VERTEX
8
OFFSET_A
10
47
20
15367
30
0
0
VERTEX
8
OFFSET_A
10
380.33
20
15367
30
0
0
VERTEX
8
OFFSET_A
10
380.33
20
17257
30
0
0
VERTEX
8
OFFSET_A
10
47
20
17257
30
0
0
SEQEND
8
OFFSET_A
0
POLYLINE
8
OFFSET_A
66
1
70
1
0
VERTEX
8
OFFSET_A
10
460.33
20
15367
30
0
0
VERTEX
8
OFFSET_A
10
793.67
20
15367
30
0
0
VERTEX
8
OFFSET_A
10
793.67
20
17257
30
0
0
VERTEX
8
OFFSET_A
10
460.33
20
17257
30
0
0
SEQEND
8
OFFSET_A
0
TEXT
8
PART_NUMBER
10
51
20
18245.52
40
14
50
90
1
7
0
TEXT
8
text
10
81.1
20
15309
40
14
50
90
1
867 x 3000
0
TEXT
8
text
10
98.46
20
15309
40
14
50
90
1
Room 2 Wall 1C
0
ENDSEC
0
EOF
