0
SECTION
2
HEADER
9
$ACADVER
1
AC1009
0
ENDSEC
0
SECTION
2
TABLES
0
TABLE
2
LAYER
70
5
0
LAYER
2
WALL
70
0
62
8
6
CONTINUOUS
0
LAYER
2
OUT
70
0
62
150
6
CONTINUOUS
0
LAYER
2
text
70
0
62
7
6
CONTINUOUS
0
LAYER
2
INSIDE
70
0
62
5
6
CONTINUOUS
0
LAYER
2
OFFSET_A
70
0
62
30
6
CONTINUOUS
0
ENDTAB
0
ENDSEC
0
SECTION
2
ENTITIES
0
TEXT
8
text
10
0
20
0
40
55
1
ROOM: Room 1
0
TEXT
8
text
10
0
20
-120
40
60
1
Wall 1   2600 x 3200
0
POLYLINE
8
WALL
66
1
70
1
0
VERTEX
8
WALL
10
0
20
-3350
30
0
0
VERTEX
8
WALL
10
2600
20
-3350
30
0
0
VERTEX
8
WALL
10
2600
20
-150
30
0
0
VERTEX
8
WALL
10
0
20
-150
30
0
0
SEQEND
8
WALL
0
POLYLINE
8
OUT
66
1
70
1
0
VERTEX
8
OUT
10
0
20
-3350
30
0
0
VERTEX
8
OUT
10
800
20
-3350
30
0
0
VERTEX
8
OUT
10
800
20
-2320
30
0
0
VERTEX
8
OUT
10
0
20
-2320
30
0
0
SEQEND
8
OUT
0
POLYLINE
8
OFFSET_A
66
1
70
1
0
VERTEX
8
OFFSET_A
10
80
20
-3045
30
0
0
VERTEX
8
OFFSET_A
10
312.5
20
-3045
30
0
0
VERTEX
8
OFFSET_A
10
312.5
20
-2400
30
0
0
VERTEX
8
OFFSET_A
10
80
20
-2400
30
0
0
SEQEND
8
OFFSET_A
0
POLYLINE
8
OFFSET_A
66
1
70
1
0
VERTEX
8
OFFSET_A
10
392.5
20
-3045
30
0
0
VERTEX
8
OFFSET_A
10
625
20
-3045
30
0
0
VERTEX
8
OFFSET_A
10
625
20
-2400
30
0
0
VERTEX
8
OFFSET_A
10
392.5
20
-2400
30
0
0
SEQEND
8
OFFSET_A
0
TEXT
8
text
10
18
20
-2406
40
70
1
Wall 1A
0
TEXT
8
text
10
18
20
-3334
40
49
1
800 x 1030
0
POLYLINE
8
OUT
66
1
70
1
0
VERTEX
8
OUT
10
1700
20
-3350
30
0
0
VERTEX
8
OUT
10
2600
20
-3350
30
0
0
VERTEX
8
OUT
10
2600
20
-2320
30
0
0
VERTEX
8
OUT
10
1700
20
-2320
30
0
0
SEQEND
8
OUT
0
POLYLINE
8
OFFSET_A
66
1
70
1
0
VERTEX
8
OFFSET_A
10
1875
20
-3045
30
0
0
VERTEX
8
OFFSET_A
10
2095
20
-3045
30
0
0
VERTEX
8
OFFSET_A
10
2095
20
-2400
30
0
0
VERTEX
8
OFFSET_A
10
1875
20
-2400
30
0
0
SEQEND
8
OFFSET_A
0
POLYLINE
8
OFFSET_A
66
1
70
1
0
VERTEX
8
OFFSET_A
10
2175
20
-3045
30
0
0
VERTEX
8
OFFSET_A
10
2560
20
-3045
30
0
0
VERTEX
8
OFFSET_A
10
2560
20
-2400
30
0
0
VERTEX
8
OFFSET_A
10
2175
20
-2400
30
0
0
SEQEND
8
OFFSET_A
0
TEXT
8
text
10
1718
20
-2406
40
70
1
Wall 1B
0
TEXT
8
text
10
1718
20
-3334
40
49
1
900 x 1030
0
POLYLINE
8
INSIDE
66
1
70
1
0
VERTEX
8
INSIDE
10
800
20
-3350
30
0
0
VERTEX
8
INSIDE
10
1700
20
-3350
30
0
0
VERTEX
8
INSIDE
10
1700
20
-1250
30
0
0
VERTEX
8
INSIDE
10
800
20
-1250
30
0
0
SEQEND
8
INSIDE
0
TEXT
8
text
10
818
20
-1300
40
40
1
Door
0
TEXT
8
text
10
0
20
-3740
40
60
1
Wall 2   1600 x 3200
0
POLYLINE
8
WALL
66
1
70
1
0
VERTEX
8
WALL
10
0
20
-6970
30
0
0
VERTEX
8
WALL
10
1600
20
-6970
30
0
0
VERTEX
8
WALL
10
1600
20
-3770
30
0
0
VERTEX
8
WALL
10
0
20
-3770
30
0
0
SEQEND
8
WALL
0
POLYLINE
8
OUT
66
1
70
1
0
VERTEX
8
OUT
10
0
20
-6970
30
0
0
VERTEX
8
OUT
10
1600
20
-6970
30
0
0
VERTEX
8
OUT
10
1600
20
-5940
30
0
0
VERTEX
8
OUT
10
0
20
-5940
30
0
0
SEQEND
8
OUT
0
POLYLINE
8
OFFSET_A
66
1
70
1
0
VERTEX
8
OFFSET_A
10
40
20
-6665
30
0
0
VERTEX
8
OFFSET_A
10
425
20
-6665
30
0
0
VERTEX
8
OFFSET_A
10
425
20
-6020
30
0
0
VERTEX
8
OFFSET_A
10
40
20
-6020
30
0
0
SEQEND
8
OFFSET_A
0
POLYLINE
8
OFFSET_A
66
1
70
1
0
VERTEX
8
OFFSET_A
10
505
20
-6665
30
0
0
VERTEX
8
OFFSET_A
10
972.5
20
-6665
30
0
0
VERTEX
8
OFFSET_A
10
972.5
20
-6020
30
0
0
VERTEX
8
OFFSET_A
10
505
20
-6020
30
0
0
SEQEND
8
OFFSET_A
0
POLYLINE
8
OFFSET_A
66
1
70
1
0
VERTEX
8
OFFSET_A
10
1052.5
20
-6665
30
0
0
VERTEX
8
OFFSET_A
10
1520
20
-6665
30
0
0
VERTEX
8
OFFSET_A
10
1520
20
-6020
30
0
0
VERTEX
8
OFFSET_A
10
1052.5
20
-6020
30
0
0
SEQEND
8
OFFSET_A
0
TEXT
8
text
10
18
20
-6026
40
70
1
Wall 2A
0
TEXT
8
text
10
18
20
-6954
40
49
1
1600 x 1030
0
ENDSEC
0
EOF
