0
SECTION
2
HEADER
9
$ACADVER
1
AC1009
0
ENDSEC
0
SECTION
2
TABLES
0
TABLE
2
LAYER
70
8
0
LAYER
2
0
70
0
62
7
6
CONTINUOUS
0
LAYER
2
text
70
0
62
7
6
CONTINUOUS
0
LAYER
2
SHEET
70
0
62
7
6
CONTINUOUS
0
LAYER
2
OUT
70
0
62
150
6
CONTINUOUS
0
LAYER
2
IN
70
0
62
5
6
CONTINUOUS
0
LAYER
2
PART_NUMBER
70
0
62
7
6
CONTINUOUS
0
LAYER
2
OFFCUT
70
0
62
6
6
CONTINUOUS
0
LAYER
2
OFFCUT_TEXT
70
0
62
4
6
CONTINUOUS
0
ENDTAB
0
ENDSEC
0
SECTION
2
ENTITIES
0
POLYLINE
8
SHEET
66
1
70
1
0
VERTEX
8
SHEET
10
0
20
0
30
0
0
VERTEX
8
SHEET
10
1220
20
0
30
0
0
VERTEX
8
SHEET
10
1220
20
2440
30
0
0
VERTEX
8
SHEET
10
0
20
2440
30
0
0
SEQEND
8
SHEET
0
TEXT
8
text
10
40
20
2412
40
20
1
SHEET 1 MR MDF 9mm
0
POLYLINE
8
OUT
66
1
70
1
0
VERTEX
8
OUT
10
7
20
7
30
0
0
VERTEX
8
OUT
10
531
20
7
30
0
0
VERTEX
8
OUT
10
531
20
456
30
0
0
VERTEX
8
OUT
10
7
20
456
30
0
0
SEQEND
8
OUT
0
POLYLINE
8
IN
66
1
70
1
0
VERTEX
8
IN
10
14
20
14
30
0
0
VERTEX
8
IN
10
524
20
14
30
0
0
VERTEX
8
IN
10
524
20
449
30
0
0
VERTEX
8
IN
10
14
20
449
30
0
0
SEQEND
8
IN
0
POLYLINE
8
IN
66
1
70
1
0
VERTEX
8
IN
10
21
20
21
30
0
0
VERTEX
8
IN
10
517
20
21
30
0
0
VERTEX
8
IN
10
517
20
442
30
0
0
VERTEX
8
IN
10
21
20
442
30
0
0
SEQEND
8
IN
0
TEXT
8
PART_NUMBER
10
37
20
412
40
14
1
9
0
TEXT
8
text
10
29
20
43
40
14
1
524 x 449
0
TEXT
8
text
10
29
20
60.36
40
14
1
Traditional
0
POLYLINE
8
OUT
66
1
70
1
0
VERTEX
8
OUT
10
538
20
7
30
0
0
VERTEX
8
OUT
10
1062
20
7
30
0
0
VERTEX
8
OUT
10
1062
20
456
30
0
0
VERTEX
8
OUT
10
538
20
456
30
0
0
SEQEND
8
OUT
0
POLYLINE
8
IN
66
1
70
1
0
VERTEX
8
IN
10
545
20
14
30
0
0
VERTEX
8
IN
10
1055
20
14
30
0
0
VERTEX
8
IN
10
1055
20
449
30
0
0
VERTEX
8
IN
10
545
20
449
30
0
0
SEQEND
8
IN
0
POLYLINE
8
IN
66
1
70
1
0
VERTEX
8
IN
10
552
20
21
30
0
0
VERTEX
8
IN
10
1048
20
21
30
0
0
VERTEX
8
IN
10
1048
20
442
30
0
0
VERTEX
8
IN
10
552
20
442
30
0
0
SEQEND
8
IN
0
TEXT
8
PART_NUMBER
10
568
20
412
40
14
1
10
0
TEXT
8
text
10
560
20
43
40
14
1
524 x 449
0
TEXT
8
text
10
560
20
60.36
40
14
1
Traditional
0
LINE
8
OFFCUT
10
0
20
463
11
1066
21
463
0
LINE
8
OFFCUT
10
1066
20
463
11
1069
21
460
0
LINE
8
OFFCUT
10
1069
20
460
11
1069
21
0
0
TEXT
8
OFFCUT_TEXT
10
36
20
485
40
14
50
90
1
1977 x 1220 / 2440 x 151
0
TEXT
8
OFFCUT_TEXT
10
53.36
20
485
40
14
50
90
1
OFFCUT
0
ENDSEC
0
EOF
